<?xml version="1.0" encoding="UTF-8" standalone="no"?>
<!DOCTYPE svg PUBLIC "-//W3C//DTD SVG 20010904//EN"
              "http://www.w3.org/TR/2001/REC-SVG-20010904/DTD/svg10.dtd">

<svg xmlns="http://www.w3.org/2000/svg"
     width="0.94in" height="0.936667in"
     viewBox="0 0 282 281">
  <path id="Bracket V6"
        fill="none" stroke="black" stroke-width="1"
        d="M 264.00,176.75
           C 264.00,176.75 240.33,34.33 240.33,34.33
             240.33,34.33 257.00,34.33 257.00,34.33
             257.00,34.33 256.67,8.67 256.67,8.67
             256.67,8.67 140.45,11.58 140.45,11.58
             140.45,11.58 140.00,0.00 140.00,0.00
             140.00,0.00 123.67,0.33 123.67,0.33
             122.33,22.67 121.75,81.25 95.75,90.50
             69.75,99.75 30.51,79.06 30.00,30.67
             30.00,30.67 11.00,30.67 11.00,30.67
             4.89,96.89 58.79,109.61 60.32,109.11
             27.21,114.71 14.30,168.90 11.25,179.25
             8.20,189.60 -7.67,284.67 -7.67,284.67
             -7.67,284.67 14.00,284.67 14.00,284.67
             14.00,284.67 25.75,217.00 35.00,187.00
             44.25,157.00 49.75,138.75 62.75,129.25
             75.75,119.75 94.75,120.00 115.25,107.25
             135.75,94.50 134.75,49.75 153.25,39.00
             171.75,28.25 198.58,31.17 212.25,39.75
             225.92,48.33 261.67,280.33 261.67,280.33
             261.67,280.33 282.00,281.00 282.00,281.00
             282.00,281.00 272.50,219.00 272.50,219.00
             272.50,219.00 281.00,219.25 281.00,219.25
             281.00,219.25 274.00,176.75 274.00,176.75
             274.00,176.75 264.00,176.75 264.00,176.75 Z" />
</svg>
