<?xml version="1.0" encoding="UTF-8" standalone="no"?>
<!DOCTYPE svg PUBLIC "-//W3C//DTD SVG 20010904//EN"
              "http://www.w3.org/TR/2001/REC-SVG-20010904/DTD/svg10.dtd">

<svg xmlns="http://www.w3.org/2000/svg"
     width="0.88in" height="1in"
     viewBox="0 0 264 300">
  <path id="Unnamed"
        fill="none" stroke="black" stroke-width="1"
        d="M 242.69,289.93
           C 242.69,289.93 255.93,289.42 255.93,289.42
             255.93,289.42 250.33,190.59 250.33,190.59
             250.33,190.59 260.04,190.11 260.04,190.11
             260.04,190.11 259.53,174.95 259.53,174.95
             259.53,174.95 249.31,175.31 249.31,175.31
             249.31,175.31 238.61,52.54 238.61,52.54
             238.61,52.54 248.79,51.72 248.79,51.72
             248.79,51.72 248.80,36.24 248.80,36.24
             248.80,36.24 140.45,39.58 140.45,39.58
             140.45,39.58 134.69,11.28 134.69,11.28
             134.69,11.28 126.30,11.49 126.30,11.49
             126.30,11.49 128.00,106.18 116.35,119.28
             104.71,132.37 65.41,123.86 65.41,123.86
             52.17,119.79 25.68,109.60 25.17,61.20
             25.17,61.20 13.46,60.19 13.46,60.19
             7.34,126.41 58.79,137.61 60.32,137.11
             27.21,142.71 12.95,191.10 12.95,191.10
             12.95,191.10 0.25,297.59 0.25,297.59
             0.25,297.59 12.47,297.89 12.47,297.89
             12.47,297.89 27.72,195.69 27.72,195.69
             33.83,162.58 67.45,148.82 67.45,148.82
             67.45,148.82 84.00,141.27 105.15,139.65
             134.73,136.91 134.00,119.45 135.71,113.67
             135.71,113.67 140.30,53.05 140.30,53.05
             140.30,53.05 220.78,51.53 220.78,51.53
             220.78,51.53 242.69,289.93 242.69,289.93 Z" />
</svg>
