<?xml version="1.0" encoding="UTF-8" standalone="no"?>
<!DOCTYPE svg PUBLIC "-//W3C//DTD SVG 20010904//EN"
              "http://www.w3.org/TR/2001/REC-SVG-20010904/DTD/svg10.dtd">

<svg xmlns="http://www.w3.org/2000/svg"
     width="0.94in" height="0.936667in"
     viewBox="0 0 282 281">
  <path id="Bracket"
        fill="none" stroke="black" stroke-width="1"
        d="M 261.67,280.33
           C 261.67,280.33 282.00,281.00 282.00,281.00
             282.00,281.00 240.33,34.33 240.33,34.33
             240.33,34.33 250.00,34.33 250.00,34.33
             250.00,34.33 248.80,8.24 248.80,8.24
             248.80,8.24 140.45,11.58 140.45,11.58
             140.45,11.58 140.00,0.00 140.00,0.00
             140.00,0.00 123.67,0.33 123.67,0.33
             122.33,22.67 128.65,74.39 112.33,85.67
             96.02,96.94 71.33,91.00 71.33,91.00
             58.09,86.92 33.18,80.39 32.67,32.00
             32.67,32.00 13.46,32.19 13.46,32.19
             7.34,98.41 58.79,109.61 60.32,109.11
             27.21,114.71 12.95,163.10 12.95,163.10
             12.95,163.10 0.67,279.67 0.67,279.67
             0.67,279.67 22.33,279.33 22.33,279.33
             22.33,279.33 37.67,170.00 37.67,170.00
             43.78,136.89 68.33,129.33 68.33,129.33
             68.33,129.33 81.52,124.29 102.67,122.67
             132.25,119.92 139.33,107.67 145.67,99.67
             152.00,91.67 152.00,36.00 152.00,36.00
             152.00,36.00 212.33,34.67 212.33,34.67
             212.33,34.67 261.67,280.33 261.67,280.33 Z" />
</svg>
