<?xml version="1.0" encoding="UTF-8" standalone="no"?>
<!DOCTYPE svg PUBLIC "-//W3C//DTD SVG 20010904//EN"
              "http://www.w3.org/TR/2001/REC-SVG-20010904/DTD/svg10.dtd">

<svg xmlns="http://www.w3.org/2000/svg"
     width="0.94in" height="0.936667in"
     viewBox="0 0 282 281">
  <path id="Bracket V3"
        fill="none" stroke="black" stroke-width="1"
        d="M 261.67,280.33
           C 261.67,280.33 282.00,281.00 282.00,281.00
             282.00,281.00 240.33,34.33 240.33,34.33
             240.33,34.33 250.00,34.33 250.00,34.33
             250.00,34.33 248.80,8.24 248.80,8.24
             248.80,8.24 140.45,11.58 140.45,11.58
             140.45,11.58 140.00,0.00 140.00,0.00
             140.00,0.00 123.67,0.33 123.67,0.33
             122.33,22.67 121.75,81.25 95.75,90.50
             69.75,99.75 33.18,80.39 32.67,32.00
             32.67,32.00 13.46,32.19 13.46,32.19
             7.34,98.41 58.79,109.61 60.32,109.11
             27.21,114.71 14.30,168.90 11.25,179.25
             8.20,189.60 0.25,284.75 0.25,284.75
             0.25,284.75 22.25,284.75 22.25,284.75
             22.25,284.75 25.75,217.00 35.00,187.00
             44.25,157.00 49.75,138.75 62.75,129.25
             75.75,119.75 94.75,120.00 115.25,107.25
             135.75,94.50 134.75,49.75 153.25,39.00
             171.75,28.25 198.58,31.17 212.25,39.75
             225.92,48.33 261.67,280.33 261.67,280.33 Z" />
</svg>
